Coordinates
version=1
nRows=8
nColumns=36
inDegrees=yes

Units are S.I. units (second, meters, Newtons, ...)
If the header above contains a line with 'inDegrees', this indicates whether rotational values are in degrees (yes) or radians (no).

endheader
time	pelvis_tilt	pelvis_list	pelvis_rotation	pelvis_tx	pelvis_ty	pelvis_tz	hip_flexion_r	hip_adduction_r	hip_rotation_r	knee_angle_r	knee_angle_r_beta	ankle_angle_r	subtalar_angle_r	mtp_angle_r	hip_flexion_l	hip_adduction_l	hip_rotation_l	knee_angle_l	knee_angle_l_beta	ankle_angle_l	subtalar_angle_l	mtp_angle_l	lumbar_extension	lumbar_bending	lumbar_rotation	arm_flex_r	arm_add_r	arm_rot_r	elbow_flex_r	pro_sup_r	arm_flex_l	arm_add_l	arm_rot_l	elbow_flex_l	pro_sup_l
      5.10000000	     -8.88873496	      2.67675931	     -3.49427618	      1.15486464	      0.95803312	     -0.55608110	     16.25448627	     -3.00622122	     -4.02749424	     20.65924233	      0.36057180	      9.31708464	     -5.13536624	     -7.49999987	     12.52349044	     -3.26044086	    -10.05078459	     14.93234878	      0.26061865	      5.07724637	     -0.58835492	     -7.49999987	     -5.94083934	     -0.95198923	      2.11044453	      1.04916876	    -13.95099762	     14.76144386	     52.82882750	     72.20294679	     -3.42570921	    -22.03195317	     23.56328491	     90.80082033	     74.45567287
      5.11666670	     -8.48756192	      2.42336426	     -3.46204232	      1.16044889	      0.96365952	     -0.55937227	     14.47587367	     -2.73998579	     -4.43073902	     18.28908524	      0.31920475	      8.42257471	     -4.72271365	     -7.49999987	     10.83400944	     -3.33027037	    -10.63347112	     12.85299444	      0.22432707	      4.59707415	      0.77827240	     -7.49999987	     -6.16280253	     -0.82674501	      2.08065795	      0.09501874	    -14.18232530	     14.05677562	     55.35054943	     72.71609721	     -3.92578275	    -22.53498482	     23.87235545	     92.24392132	     74.31807825
      5.13333330	     -8.10320591	      2.26166520	     -3.54866664	      1.15953699	      0.96624968	     -0.55981290	     12.84833764	     -2.54746201	     -4.63394903	     16.21472088	      0.28300027	      7.84847342	     -4.13370912	     -7.49999987	      9.53769340	     -3.34973656	    -10.90730837	     11.38712254	      0.19874278	      4.47590666	      1.87816037	     -7.49999987	     -6.33600842	     -0.75877095	      2.36545270	     -0.30599603	    -14.30361449	     13.35982725	     56.56639836	     73.11693100	     -4.17411290	    -23.05645568	     23.97564340	     92.59964342	     74.10563255
      5.15000000	     -7.65836445	      2.15864343	     -3.68909910	      1.16447958	      0.96562307	     -0.56275498	     11.20267788	     -2.42546512	     -4.76700181	     14.28347573	      0.24929368	      7.28166223	     -3.84755043	     -7.49999987	      8.08854432	     -3.20447422	    -10.97270962	      9.94032668	      0.17349143	      4.48722535	      2.77654794	     -7.49999987	     -6.45602513	     -0.71212379	      2.61077259	     -1.18660267	    -14.59330076	     12.71836859	     58.00053431	     73.47807198	     -4.67712516	    -23.22086360	     24.03555737	     92.45669507	     73.81103212
      5.16666670	     -7.33605743	      2.14620679	     -3.61332280	      1.16345992	      0.96100929	     -0.56454773	     10.01317148	     -2.45928448	     -4.87014586	     12.97332072	      0.22642716	      7.01823191	     -3.57500479	     -7.49999987	      7.09188608	     -2.92855571	    -10.61562097	      8.98130962	      0.15675342	      4.55248032	      2.87952292	     -7.49999987	     -6.34701473	     -0.74052790	      2.47653681	     -1.61774999	    -14.95731759	     12.35891567	     59.03662986	     73.30166251	     -4.94635417	    -23.42168825	     24.26009648	     92.10117644	     73.26049751
      5.18333330	     -6.95155365	      2.12098164	     -3.80420192	      1.16237124	      0.96056375	     -0.56395854	      9.05737458	     -2.40616282	     -4.44571548	     12.09329468	      0.21106781	      6.87492131	     -3.87721186	     -7.49999987	      6.16543362	     -2.78786783	    -10.79220815	      8.27759874	      0.14447135	      5.17544192	      3.60998484	     -7.49999987	     -6.55556162	     -0.75736997	      2.57813014	     -2.00399757	    -15.17670667	     11.97094328	     60.38224213	     73.08967284	     -5.00736059	    -23.31757191	     24.20644396	     91.03247915	     72.59679172
      5.20000000	     -6.69138095	      2.18852231	     -3.80680070	      1.16177968	      0.95856951	     -0.56479837	      8.31557666	     -2.49173099	     -4.15812445	     11.32691833	      0.19769202	      6.78778151	     -4.11500234	     -7.49999987	      5.63236916	     -2.53737721	    -10.79367609	      7.81785885	      0.13644738	      5.54786651	      3.86363864	     -7.49999987	     -6.62008967	     -0.82636060	      2.61835340	     -2.49094815	    -15.38270633	     11.50260737	     61.49341404	     72.76437047	     -4.85513701	    -23.28892587	     23.98326447	     89.85910991	     71.89705569
      5.21666670	     -6.39271207	      2.23637297	     -3.81760460	      1.16102197	      0.95602953	     -0.56475976	      7.68875312	     -2.54658960	     -3.90954678	     10.84352046	      0.18925513	      6.87209352	     -4.44698977	     -7.49999987	      5.20011283	     -2.33383975	    -10.66537722	      7.59554483	      0.13256727	      5.97780516	      3.84964834	     -7.49999987	     -6.71116361	     -0.87494860	      2.71595667	     -2.91498797	    -15.49578533	     11.01703018	     62.39253658	     72.30253167	     -4.57519139	    -23.26083819	     23.96024433	     88.80684876	     71.09833296
